<?xml version="1.0" encoding="UTF-8"?>
<svg width="381px" height="544px" viewBox="0 0 381 544" version="1.1" xmlns="http://www.w3.org/2000/svg" xmlns:xlink="http://www.w3.org/1999/xlink" xmlns:sketch="http://www.bohemiancoding.com/sketch/ns">
    <!-- Generator: Sketch 3.4.2 (15855) - http://www.bohemiancoding.com/sketch -->
    <title>Group</title>
    <desc>Created with Sketch.</desc>
    <defs></defs>
    <g id="Page-1" stroke="none" stroke-width="1" fill="none" fill-rule="evenodd" sketch:type="MSPage">
        <g id="Group" sketch:type="MSLayerGroup">
            <g id="c4464c91a43751d169b8f2c807cc7d1c" fill="#000000" sketch:type="MSShapeGroup">
                <g id="Group" transform="translate(190.500000, 272.000000) scale(1, -1) translate(-190.500000, -272.000000) ">
                    <path d="M0,272 L0,0 L190.233411,0.26644898 L380.333528,0.666122449 L380.733411,197.03902 L381,393.411918 L305.727507,468.633796 L230.327274,544 L115.227507,544 L0,544 L0,272 L0,272 Z M285.683353,448.866612 L353.119242,381.466122 L353.119242,204.732735 L353.119242,27.8661224 L189.833528,27.8661224 L26.5478134,27.8661224 L26.5478134,272 L26.5478134,516.139429 L122.397638,516.139429 L218.380758,516.139429 L285.683353,448.866612 L285.683353,448.866612 Z" id="Shape"></path>
                    <path d="M217.714286,441.172898 L217.714286,380.8 L278.379927,380.8 L339.178863,380.8 L278.77981,441.172898 C245.595044,474.340245 218.247464,501.540245 218.114169,501.540245 C217.84758,501.540245 217.714286,474.340245 217.714286,441.172898 L217.714286,441.172898 Z" id="Shape"></path>
                </g>
            </g>
            <g id="8a3f2016afa553137c1a4da0c02a6b47" transform="translate(63.000000, 237.000000)" fill="#000000" sketch:type="MSShapeGroup">
                <g id="Group" transform="translate(128.000000, 96.775443) scale(1, -1) translate(-128.000000, -96.775443) translate(0.000000, 0.655364)">
                    <path d="M5.29745158,163.516448 C4.64766565,162.86607 4.44933741,162.215693 4.69724771,161.317179 C5.3966157,158.517159 6.04640163,158.616414 20.8818756,163.566075 C28.4757594,166.06572 42.8128033,171.065009 52.6535372,174.61466 L70.6361672,181.115826 L74.1330071,177.41468 C76.0823649,175.41392 82.126157,169.113875 87.5697452,163.414582 L97.4600612,153.066001 L94.3129052,151.464871 C92.5644852,150.615984 90.5655454,149.46411 89.8165953,148.915599 L88.4674414,147.964846 L75.6804893,156.513787 C64.7907034,163.764584 62.6430173,165.0131 60.9937615,165.0131 C58.9452396,165.0131 57.1968196,163.814211 35.7173496,148.262609 C26.3254638,141.411442 21.9309276,138.112538 5.09651376,125.261702 C0.451457696,121.71205 -0.498430173,120.361667 0.451457696,118.611655 C1.20040775,117.162018 2.75049949,117.010524 4.84860347,118.112771 C9.29533129,120.513161 29.9266871,133.463252 44.6108053,143.111827 C53.3529052,148.811121 60.7458512,153.512646 61.0459531,153.512646 C61.296473,153.512646 65.6910092,150.712627 70.7379409,147.262229 L79.9288889,140.962185 L77.530683,137.961045 C75.7326809,135.761775 71.2859531,128.160976 71.186789,127.160595 C71.186789,127.110968 66.1424669,128.309857 59.9969011,129.811734 C47.5074414,132.812874 45.7094393,133.011383 44.0106014,131.412864 C40.8634455,128.516202 0,63.4157443 0,61.3157296 C0,60.1664678 1.5996738,58.5157099 2.74788991,58.5157099 C3.49683996,58.5157099 4.54589195,59.3149692 5.89504587,60.9160999 C10.0912538,65.965016 24.7283996,86.0666499 36.8655657,103.415279 C49.0549235,120.816148 49.5533537,121.516153 50.8529256,121.16615 C51.6018756,121.017269 55.8972477,119.915022 60.4431397,118.76576 L68.6841998,116.715373 L68.9347197,106.714183 C69.1852396,98.3637512 69.3835678,96.3133637 70.2342915,93.9155856 C70.8344954,92.314455 71.1345973,91.0163115 70.9336595,91.0163115 C70.7849134,91.0163115 67.9352497,91.9174373 64.6889297,93.0170719 C57.6456677,95.4148499 55.4979817,95.6159707 53.6008155,94.2159609 C50.5032416,91.9148253 0,5.41720226 0,2.41606176 C0,1.21717274 1.39873598,0.015671752 2.69830785,0.015671752 C3.29851172,0.015671752 4.29798165,0.514555856 4.84599388,1.16493356 C6.8945158,3.31457554 31.4219776,40.5140908 44.9082977,61.8642409 C52.4525994,73.7643246 58.7964934,83.5147662 59.0444037,83.5147662 C60.2422018,83.5147662 86.3197554,74.7647047 87.4183894,74.0150726 C92.3635474,70.5646752 102.504383,66.7146481 111.196901,64.9646358 C118.091417,63.6142532 130.179001,63.1649963 137.373619,64.0138829 C147.415291,65.1631447 158.305076,68.6135421 165.846769,73.0146924 C167.994455,74.2658206 173.638981,76.3658354 182.480245,79.2651095 C189.823609,81.6158723 196.068338,83.5147662 196.318858,83.4155118 C196.569378,83.3162574 203.161182,73.2654405 210.956004,61.0153543 C223.943894,40.56633 238.930724,17.81617 247.722406,5.11682702 C250.81998,0.718288632 251.519348,0.015671752 252.667564,0.015671752 C254.415984,0.015671752 255.264098,0.814931102 255.264098,2.46568898 C255.264098,4.61533095 234.134312,41.765219 213.552538,75.7650849 C202.414842,94.2159609 202.61317,93.9652128 200.564648,94.8167114 C198.717064,95.5663435 197.067808,95.2659683 189.124241,92.567815 C183.878981,90.7681754 183.628461,90.7185482 183.978145,91.9174373 C185.776147,97.6167311 185.977085,98.818232 186.277187,107.466427 L186.577288,116.665746 L196.269276,119.115763 C201.564118,120.466145 206.010846,121.466526 206.060428,121.414286 C206.11001,121.315032 211.206524,114.064235 217.299898,105.264546 C229.538838,87.7147958 233.234006,82.5640133 243.176514,69.3657862 C250.720815,59.265342 251.367992,58.5157099 252.717146,58.5157099 C254.016718,58.5157099 255.264098,59.8164653 255.264098,61.1668479 C255.264098,64.1157493 213.60212,130.516962 210.85423,132.016227 C209.155392,132.917352 206.809378,132.56735 195.36897,129.76733 C189.226014,128.268066 184.129501,127.066565 184.079918,127.116192 C184.030336,127.215447 183.030866,129.067325 181.88265,131.266594 C180.784016,133.465864 178.834659,136.516631 177.63686,138.015896 L175.489174,140.716661 L184.88106,147.11596 C190.027156,150.615984 194.523466,153.515258 194.820958,153.515258 C195.12106,153.515258 199.317268,150.86412 204.212844,147.614844 C225.84367,133.165488 251.370601,117.415378 253.218186,117.415378 C255.117961,117.415378 256.414924,119.766141 255.365872,121.315032 C254.366402,122.764669 226.84053,143.514069 208.35947,156.665281 C198.11947,164.015332 196.470214,165.015712 194.771376,165.015712 C193.12212,165.015712 191.073598,163.816823 180.035066,156.466772 L167.14634,147.915219 L165.64844,148.816345 C164.800326,149.315229 162.801386,150.417475 161.253904,151.266362 L158.40685,152.815253 L171.694842,166.765725 C178.988624,174.465779 185.13158,180.81545 185.332518,180.914705 C185.481264,180.964332 193.174312,178.315806 202.36787,174.964663 C211.558818,171.665759 225.747115,166.663858 233.988175,163.965705 C248.124281,159.214552 248.922813,159.016043 250.073639,159.765675 C251.373211,160.614562 251.722895,163.064579 250.673843,163.866451 C247.678043,166.115347 186.532926,192.015529 184.13472,192.015529 C183.435352,192.015529 182.336718,191.764781 181.686932,191.464406 C181.037146,191.164031 173.093578,183.265468 164.103568,173.914656 C149.41684,158.765295 147.519674,156.965656 146.368848,157.213792 C138.474862,158.914177 135.627808,159.214552 127.136228,159.214552 C119.993802,159.164925 117.144139,158.963804 113.248033,158.114918 L108.402039,157.114537 L101.058675,164.663098 C97.0138226,168.863127 89.3207747,176.712063 83.924159,182.163221 C74.4331091,191.762169 74.0834251,192.012917 72.1836493,191.96329 C70.8840775,191.965902 66.4399592,190.364771 59.4462793,187.465497 C32.8207136,176.4143 6.64399592,164.814592 5.29745158,163.516448 Z M133.378349,131.91436 C136.726442,130.91398 140.972232,128.315081 143.119918,125.914691 C154.557717,113.165721 147.564037,93.2155807 130.680041,90.415561 C121.687421,88.9162968 112.496473,93.8163312 108.300265,102.365272 C106.700591,105.614548 106.651009,106.014178 106.651009,111.514963 C106.651009,117.065375 106.700591,117.415378 108.349847,120.615027 C110.398369,124.715802 114.743323,129.064713 118.589847,130.814726 C122.986993,132.815486 128.780265,133.264743 133.378349,131.91436 L133.378349,131.91436 Z" id="Shape"></path>
                    <path d="M123.135739,126.865444 C119.839837,125.76581 118.190581,124.715802 115.943731,122.265785 C112.796575,118.865015 111.697941,116.064995 111.697941,111.514963 C111.697941,107.516054 112.446891,105.214919 114.745933,101.866388 C115.494883,100.81638 116.444771,99.766373 116.943201,99.515625 C117.692151,99.1159953 117.642569,99.3145042 116.742263,101.166383 C115.841957,102.866768 115.643629,104.167523 115.643629,107.766802 C115.643629,111.666457 115.844567,112.61721 116.992783,114.766852 C119.889419,120.267637 125.184261,123.516913 131.128889,123.467286 C133.078247,123.467286 135.424261,123.166911 136.374149,122.816908 C137.324037,122.466906 138.571417,121.968022 139.122039,121.816528 C140.920041,121.16615 136.374149,124.916923 134.025525,126.016558 C131.178471,127.364328 125.883629,127.76657 123.135739,126.865444 L123.135739,126.865444 Z" id="Shape"></path>
                </g>
            </g>
            <path d="M63.468,69.5 L179.532,69.5" id="Line" stroke="#000000" stroke-width="15" stroke-linecap="square" sketch:type="MSShapeGroup"></path>
            <path d="M63.468,105.5 L179.532,105.5" id="Line" stroke="#000000" stroke-width="15" stroke-linecap="square" sketch:type="MSShapeGroup"></path>
            <path d="M63.468,141.5 L149.625767,141.5" id="Line" stroke="#000000" stroke-width="15" stroke-linecap="square" sketch:type="MSShapeGroup"></path>
        </g>
    </g>
</svg>